<svg width="512" height="384" viewBox="0 0 512 384" fill="none" xmlns="http://www.w3.org/2000/svg">
<path fill-rule="evenodd" clip-rule="evenodd" d="M69.2916 1.93509C48.0176 7.51309 31.1156 23.4641 24.2386 44.4541C22.0266 51.2061 21.6176 54.2471 21.6176 63.9541C21.6176 73.6861 22.0246 76.6961 24.2626 83.5321C30.5446 102.718 45.2436 117.557 65.0946 124.755C71.5486 127.095 73.9306 127.417 84.9296 127.434C95.3916 127.451 98.5706 127.074 104.43 125.121C115.124 121.557 121.662 117.389 130.528 108.483C143.403 95.5501 148.93 82.1751 148.93 63.9541C148.93 45.4361 143.399 32.2381 130.026 18.8451C123.307 12.1171 119.752 9.43309 113.745 6.55709C99.8786 -0.0829134 83.4896 -1.78691 69.2916 1.93509ZM241.761 0.910091C221.836 4.55909 201.999 16.1361 189.946 31.1481C182.966 39.8411 178.953 47.1311 175.031 58.2491C171.454 68.3851 171.43 68.5651 171.43 84.9541C171.43 99.4631 171.712 102.353 173.77 108.905C183.062 138.496 205.553 160.263 234.93 168.097C246.611 171.212 265.758 171.196 277.43 168.061C301.271 161.657 321.912 144.583 332.565 122.454C339.331 108.399 340.436 103.033 340.392 84.4541C340.354 68.9811 340.243 68.1331 337.017 58.7101C327.659 31.3751 306.089 10.7191 278.745 2.90709C270.551 0.566093 249.765 -0.555909 241.761 0.910091ZM412.098 1.42709C400.7 4.01009 391.394 9.38209 381.834 18.8981C368.472 32.1981 362.93 45.4071 362.93 63.9541C362.93 82.5371 368.481 95.7631 381.824 108.976C390.803 117.867 399.297 122.938 410.43 126.054C418.594 128.34 436.992 127.91 445.43 125.236C465.235 118.961 480.532 103.778 487.535 83.4441C489.909 76.5491 490.288 73.8791 490.299 63.9541C490.31 53.7011 489.984 51.5201 487.286 43.8361C480.342 24.0621 465.104 8.93709 445.945 2.80309C437.481 0.0930889 420.952 -0.578911 412.098 1.42709ZM53.2516 150.052C40.5376 152.175 27.6836 159.116 17.9446 169.117C11.2086 176.033 6.64056 183.435 3.12856 193.119C0.513558 200.328 0.462558 200.959 0.106558 229.954C-0.280442 261.612 0.209558 266.572 4.58456 275.24C9.98956 285.95 21.2156 294.721 32.9246 297.385C38.0906 298.56 45.4816 298.954 62.3316 298.954H84.8386L85.3306 295.704C85.6016 293.916 86.0516 288.854 86.3316 284.454C87.7816 261.633 97.3796 235.37 112.275 213.465C119.678 202.578 137.716 184.261 147.68 177.512C151.668 174.811 154.93 172.279 154.93 171.885C154.93 171.492 152.225 168.666 148.92 165.605C141.278 158.53 129.047 152.412 118.592 150.436C109.813 148.776 62.5566 148.499 53.2516 150.052ZM392.43 150.477C382.735 152.447 370.215 158.87 362.94 165.605C359.635 168.666 356.93 171.492 356.93 171.885C356.93 172.279 360.192 174.814 364.18 177.52C374.294 184.382 392.277 202.63 399.593 213.454C414.798 235.948 424.113 261.664 425.494 284.954C425.804 290.179 426.262 295.466 426.513 296.704L426.968 298.954L449.699 298.939C480.515 298.919 486.843 297.37 498.09 287.09C504.096 281.602 508.45 274.433 510.535 266.604C512.48 259.301 512.454 209.09 510.501 199.877C505.705 177.253 488.614 159.071 464.93 151.397C457.372 148.948 403.33 148.263 392.43 150.477ZM215.67 193.498C193.856 197.55 175.417 207.34 159.367 223.39C145.014 237.744 135.707 253.991 130.765 273.319C127.771 285.026 126.924 322.334 129.398 333.457C134.635 356.994 153.061 375.977 176.486 381.968C183.877 383.859 187.696 383.954 255.93 383.954C323.998 383.954 327.999 383.855 335.321 381.982C358.167 376.139 376.11 358.211 381.944 335.398C383.587 328.976 383.93 324.314 383.93 308.425C383.93 282.06 381.537 269.345 373.397 252.454C367.911 241.069 362.117 233.013 352.494 223.391C338.161 209.059 322.987 200.336 302.93 194.9C294.917 192.729 292.397 192.581 258.93 192.327C231.338 192.117 221.701 192.378 215.67 193.498Z" fill="black"/>
</svg>
