<svg width="449" height="448" viewBox="0 0 449 448" fill="none" xmlns="http://www.w3.org/2000/svg">
<path fill-rule="evenodd" clip-rule="evenodd" d="M200.07 0.983235C168.479 4.28224 131.982 16.9812 104.874 34.1062L96.2296 39.5672L95.8426 32.7332C95.2266 21.8292 89.9256 16.3352 80.0186 16.3352C73.6946 16.3352 70.4986 17.9732 66.5806 23.2202C64.6056 25.8652 64.5186 27.2432 64.5186 55.8352C64.5186 84.4272 64.6056 85.8052 66.5806 88.4502C67.7146 89.9692 69.8846 92.1392 71.4036 93.2732C74.0486 95.2482 75.4266 95.3352 104.019 95.3352C132.611 95.3352 133.989 95.2482 136.634 93.2732C141.881 89.3552 143.519 86.1592 143.519 79.8352C143.519 75.4832 142.99 73.2732 141.457 71.2202C137.513 65.9382 134.498 64.4692 126.397 63.8842L118.79 63.3352L127.154 58.3652C145.444 47.4982 169.478 38.7082 192.019 34.6432C207.406 31.8682 238.696 31.6292 253.519 34.1732C266.482 36.3972 284.106 41.0962 293.531 44.8402C355.338 69.3922 398.815 120.963 412.593 186.066C415.792 201.181 417.006 230.814 415.072 246.545C409.311 293.402 386.171 337.721 351.678 367.965C323.38 392.778 287.792 409.162 251.073 414.284C236.861 416.266 210.631 416.288 197.519 414.329C134.836 404.963 81.9316 367.253 53.4716 311.649C40.4776 286.262 34.2266 262.337 32.1526 230.054C31.3066 216.883 30.5006 214.777 24.6336 210.397C20.7616 207.506 11.2756 207.506 7.40358 210.397C0.0365815 215.897 -1.19742 222.424 0.945581 244.547C8.50258 322.545 55.2386 390.216 125.489 424.878C200.797 462.035 290.079 453.67 358.369 403.057C371.391 393.407 393.591 371.207 403.241 358.185C462.996 277.559 462.984 169.828 403.213 89.4852C394.687 78.0252 378.299 60.7752 366.835 51.1942C334.249 23.9612 290.529 5.63724 246.808 0.890237C235.532 -0.334763 212.246 -0.287765 200.07 0.983235ZM208.019 80.4472C206.094 80.6842 200.073 81.8022 194.638 82.9312C138.431 94.6082 95.2156 137.977 82.8226 195.147C79.6386 209.836 79.6386 237.834 82.8226 252.523C95.2566 309.88 137.974 352.597 195.331 365.031C210.02 368.215 238.018 368.215 252.707 365.031C310.044 352.602 352.325 310.381 365.186 252.716C368.464 238.015 368.478 210.201 365.215 195.147C358.969 166.333 346.246 142.942 325.579 122.275C305.314 102.009 283.33 89.8332 255.019 83.1932C246.679 81.2382 241.125 80.6572 228.019 80.3742C218.944 80.1772 209.944 80.2102 208.019 80.4472ZM216.981 130.085C213.721 131.729 211.913 133.537 210.269 136.797C208.04 141.218 208.019 141.651 208.041 183.797C208.061 223.532 208.189 226.613 209.976 230.55C211.707 234.363 214.47 236.482 238.915 252.747C256.143 264.211 267.267 270.979 269.602 271.417C274.653 272.364 281.778 269.316 284.721 264.95C288.109 259.922 288.616 255.396 286.401 249.962C284.619 245.594 283.266 244.498 262.266 230.412L240.019 215.489V178.374C240.019 141.873 239.982 141.185 237.769 136.797C235.347 131.994 228.966 127.835 224.019 127.835C222.602 127.835 219.435 128.847 216.981 130.085Z" fill="black"/>
</svg>
