<svg width="513" height="512" viewBox="0 0 513 512" fill="none" xmlns="http://www.w3.org/2000/svg">
<path fill-rule="evenodd" clip-rule="evenodd" d="M244.141 1.32801C231.186 4.97501 234.78 1.646 119.58 116.696C59.7419 176.456 9.46287 227.328 7.84787 229.745C-4.53913 248.283 -2.04613 273.088 13.7959 288.93C23.1059 298.24 34.2379 302.816 47.6259 302.838L54.8759 302.85V383.456C54.8759 472.136 54.7199 469.652 61.0869 482.27C65.5889 491.193 76.4559 501.641 85.8759 506.103C90.0009 508.057 95.7609 510.15 98.6749 510.753C102.071 511.456 120.43 511.85 149.777 511.85H195.58L198.886 509.6C200.704 508.362 203.133 506.08 204.284 504.528C206.345 501.747 206.383 500.722 206.876 435.028C207.33 374.422 207.533 368.064 209.097 365.206C211.667 360.511 216.794 355.785 221.865 353.438C226.117 351.47 228.068 351.35 255.876 351.35C283.724 351.35 285.628 351.467 289.876 353.445C295.129 355.891 300.043 360.648 302.58 365.742C304.237 369.071 304.415 374.447 304.876 435.35C305.351 498.053 305.471 501.508 307.286 504.506C308.336 506.241 310.873 508.604 312.922 509.756C316.553 511.796 317.818 511.85 362.213 511.85C391.388 511.85 409.684 511.455 413.077 510.753C432.776 506.675 450.742 489.246 455.336 469.757C456.617 464.325 456.849 451.143 456.861 383.1L456.876 302.85L464.126 302.838C477.575 302.816 488.645 298.241 498.081 288.805C504.176 282.71 509.414 273.351 510.522 266.578C510.861 264.503 511.53 262.564 512.007 262.269C512.485 261.974 512.876 258.582 512.876 254.732C512.876 250.882 512.482 247.975 512.001 248.273C511.52 248.57 510.851 247.134 510.515 245.082C510.18 243.029 508.524 238.425 506.836 234.85C503.991 228.824 495.842 220.418 395.071 119.554C335.289 59.716 284.398 9.43701 281.981 7.82201C271.596 0.883006 255.52 -1.87599 244.141 1.32801ZM0.211866 255.85C0.211866 259.975 0.388866 261.663 0.603866 259.6C0.819866 257.538 0.819866 254.163 0.603866 252.1C0.388866 250.038 0.211866 251.725 0.211866 255.85Z" fill="black"/>
</svg>
