<svg width="480" height="480" viewBox="0 0 480 480" fill="none" xmlns="http://www.w3.org/2000/svg">
<path fill-rule="evenodd" clip-rule="evenodd" d="M94.0592 1.05505C85.0022 2.35105 69.6932 7.43805 60.4272 12.2281C31.6832 27.0911 10.6172 54.2971 2.60719 86.9011C0.585185 95.1341 0.507185 98.197 0.148185 184.401C-0.182815 263.782 -0.0428151 274.482 1.43718 283.399C9.22918 330.322 45.1572 366.144 92.7912 374.481L102.891 376.249V425.621V474.992L105.346 477.446C106.952 479.053 108.931 479.901 111.073 479.901C114.061 479.901 118.836 475.414 165.881 428.401L217.417 376.901L294.904 376.893C373.911 376.884 383.346 376.519 397.018 372.936C422.588 366.236 447.025 348.691 461.136 326.901C468.082 316.175 469.94 312.464 473.687 301.832C479.982 283.972 480.034 282.936 479.675 183.401L479.351 93.4011L476.672 83.6241C464.76 40.1551 430.819 9.00205 387.056 1.37105C379.891 0.121052 357.799 -0.0809478 239.51 0.0240522C162.394 0.0930522 97.5692 0.552052 94.0592 1.05505ZM154.891 165.053C148.895 166.153 143.109 170.379 139.415 176.354C136.838 180.521 136.395 182.217 136.421 187.823C136.484 201.705 146.398 211.857 159.891 211.857C179.662 211.857 190.632 189.517 178.605 173.748C173.191 166.65 164.183 163.347 154.891 165.053ZM234.891 165.053C229.029 166.129 223.126 170.35 219.678 175.932C210.021 191.566 221.438 211.857 239.891 211.857C259.662 211.857 270.632 189.517 258.605 173.748C253.191 166.65 244.183 163.347 234.891 165.053ZM314.891 165.053C308.895 166.153 303.109 170.379 299.415 176.354C296.838 180.521 296.395 182.217 296.421 187.823C296.484 201.705 306.398 211.857 319.891 211.857C339.662 211.857 350.632 189.517 338.605 173.748C333.191 166.65 324.183 163.347 314.891 165.053Z" fill="black"/>
</svg>
