<svg width="300" height="427" viewBox="0 0 300 427" fill="none" xmlns="http://www.w3.org/2000/svg">
<path fill-rule="evenodd" clip-rule="evenodd" d="M139.503 0.528909C97.1096 3.87891 59.0966 35.2569 47.0426 76.8509C43.8166 87.9839 42.5026 98.8759 42.5026 114.486V127.132L29.0516 127.588C16.2876 128.021 15.3566 128.195 10.8286 130.995C7.91361 132.797 4.87762 135.851 3.02862 138.841L0.00261781 143.737V233.815C0.00261781 334.56 -0.353382 329.118 7.23762 344.393C9.95962 349.871 13.1516 354.094 19.0756 360.057L27.1876 368.221L85.6006 397.422C140.863 425.048 144.311 426.624 149.503 426.624C154.695 426.624 158.143 425.048 213.405 397.422L271.818 368.221L279.93 360.057C285.854 354.094 289.046 349.871 291.768 344.393C299.359 329.118 299.003 334.56 299.003 233.815V143.737L295.977 138.841C294.128 135.851 291.092 132.797 288.177 130.995C283.649 128.195 282.718 128.021 269.954 127.588L256.503 127.132V114.486C256.503 86.5399 251.188 66.9469 238.304 47.3929C232.878 39.1589 222.061 27.7409 213.575 21.2899C199.872 10.8739 177.391 1.98291 161.818 0.820909C158.07 0.541909 153.653 0.192907 152.003 0.0459074C150.353 -0.101093 144.728 0.116909 139.503 0.528909ZM133.503 44.9689C112.566 50.4679 94.6196 67.9859 87.9926 89.3929C86.8206 93.1799 86.1266 99.9559 85.7666 111.143L85.2426 127.393H149.373H213.503V114.981C213.503 108.154 212.836 99.0419 212.021 94.7309C207.559 71.1309 188.442 50.8559 165.043 44.9079C157.545 43.0019 140.87 43.0339 133.503 44.9689ZM143.231 214.72C137.907 216.376 132.611 220.944 130.419 225.77C128.747 229.453 128.545 232.643 128.525 255.675C128.501 283.73 128.858 285.959 134.306 291.769C144.624 302.772 163.065 299.262 168.95 285.175C170.22 282.135 170.499 276.758 170.481 255.675C170.462 232.759 170.254 229.44 168.61 225.822C166.266 220.662 160.506 215.883 154.939 214.481C149.719 213.167 148.12 213.199 143.231 214.72Z" fill="black"/>
</svg>
