<svg width="427" height="512" viewBox="0 0 427 512" fill="none" xmlns="http://www.w3.org/2000/svg">
<path fill-rule="evenodd" clip-rule="evenodd" d="M189.286 1.146C172.618 4.078 156.239 10.652 141.469 20.338C132.308 26.347 113.546 45.109 107.537 54.27C92.5575 77.111 85.9935 100.935 87.1815 128.15C88.4995 158.324 98.0045 182.061 117.734 204.451C139.059 228.651 166.503 242.6 198.78 245.643C245.176 250.019 287.913 229.098 314.359 189.066C338.579 152.403 339.861 99.53 317.448 61.65C299.557 31.413 270.255 9.77 237.357 2.492C225.427 -0.147003 200.59 -0.843003 189.286 1.146ZM102.349 247.306C47.5125 253.817 15.1715 293.999 3.47553 370.15C-0.858465 398.368 -1.18546 434.229 2.75554 449.15C8.78854 471.989 24.0305 491.168 44.2365 501.346C54.0405 506.285 60.1325 508.243 71.5535 510.129C80.3125 511.574 95.8455 511.71 218.349 511.411L355.349 511.077L363.078 508.9C395.013 499.907 416.086 479.4 424.106 449.511C426.162 441.848 426.345 439.02 426.295 415.65C426.228 383.52 423.507 362.224 416.138 336.15C407.278 304.797 389.6 276.664 370.709 263.852C357.844 255.127 341.675 249.342 325.146 247.549C310.242 245.933 307.741 246.786 285.349 261.131C258.941 278.048 241.664 284.334 218.752 285.361C203.242 286.055 192.902 284.658 178.9 279.976C165.14 275.374 158.429 271.962 139.9 260.153C119.233 246.981 115.587 245.734 102.349 247.306Z" fill="black"/>
</svg>
