<svg width="479" height="454" viewBox="0 0 479 454" fill="none" xmlns="http://www.w3.org/2000/svg">
<path fill-rule="evenodd" clip-rule="evenodd" d="M152.912 2.8512C133.219 10.2472 99.9321 29.7042 89.3391 40.0122C84.0931 45.1172 80.7781 51.6312 79.8441 58.6692C79.2961 62.7992 79.7791 65.6472 82.5311 74.5362C86.8761 88.5682 87.2341 102.015 83.5781 113.87C76.0711 138.215 55.9231 154.625 28.9431 158.369C18.0631 159.878 7.73714 168.436 4.91514 178.283C1.19614 191.256 0.0151348 203.056 0.000134844 227.37C-0.0208652 262.437 2.40413 273.388 12.0731 281.877C16.7401 285.975 22.4401 288.51 28.9121 289.366C55.1191 292.832 76.5121 311.246 82.9381 335.87C86.2281 348.478 84.7421 365.188 79.2381 377.463C77.6821 380.934 77.0201 384.418 76.9751 389.37C76.8511 403.16 83.3861 411.178 107.912 427.327C121.579 436.326 132.925 442.492 147.011 448.575C157.415 453.068 158.345 453.285 167.412 453.326C176.038 453.366 177.346 453.115 181.634 450.595C184.23 449.068 188.051 445.693 190.124 443.095C198.154 433.031 206.226 426.058 214.666 421.898C230.295 414.192 246.08 413.023 262.062 418.389C273.462 422.215 280.331 426.842 289.66 436.978C303.819 452.361 313.947 455.314 330.245 448.811C355.051 438.912 390.308 415.766 397.559 404.62C402.008 397.781 403.329 388.813 401.009 381.206C396.353 365.938 395.524 361.91 395.47 354.28C395.25 323.49 416.373 298.211 447.281 292.274C460.437 289.746 467.808 284.895 472.517 275.663C480.154 260.694 481.218 201.659 474.243 179.87C472.46 174.299 467.561 167.92 462.696 164.835C459.992 163.12 454.432 161.127 448.72 159.826C426.495 154.763 409.908 141.206 401.669 121.37C396.483 108.884 396.163 92.1012 400.822 76.9442C402.247 72.3092 403.412 66.8792 403.412 64.8752C403.412 58.2802 400.638 51.3382 395.895 46.0632C383.683 32.4802 348.875 11.2132 324.412 2.38919C318.188 0.144193 315.721 -0.242807 309.912 0.118193C300.522 0.702193 295.976 3.21219 286.634 12.9692C277.624 22.3782 269.413 27.8432 258.69 31.5652C251.99 33.8912 249.319 34.2652 239.412 34.2652C229.505 34.2652 226.834 33.8912 220.134 31.5652C209.411 27.8432 201.2 22.3782 192.19 12.9692C182.591 2.94319 178.323 0.650194 168.412 0.193194C162 -0.102806 159.751 0.282195 152.912 2.8512ZM225.063 148.467C210.028 151.184 196.53 158.021 185.315 168.6C173.644 179.61 166.607 191.152 162.235 206.455C159.312 216.687 159.115 235.87 161.83 245.868C169.837 275.346 190.936 296.445 220.414 304.452C230.412 307.167 249.595 306.97 259.827 304.047C290.489 295.287 312.519 271.134 317.878 240.403C320.462 225.587 319.568 214.948 314.5 200.176C306.973 178.238 287.377 158.802 265.412 151.488C251.185 146.752 239.431 145.872 225.063 148.467Z" fill="black"/>
</svg>
