<svg width="455" height="512" viewBox="0 0 455 512" fill="none" xmlns="http://www.w3.org/2000/svg">
<path fill-rule="evenodd" clip-rule="evenodd" d="M206.29 1.1357C173.896 6.4337 147.754 20.1477 124.792 43.8877C104.66 64.7017 91.2398 91.8407 86.9048 120.503C85.6488 128.803 85.1038 130.272 81.9988 133.708C80.0778 135.834 77.4748 139.507 76.2128 141.869C73.9368 146.132 73.9178 146.489 73.6308 189.772C73.3478 232.432 73.3888 233.505 75.5108 239.178C79.8568 250.794 90.3578 258.026 102.956 258.079C111.73 258.116 119.495 254.658 125.205 248.171L129.061 243.79L132.81 252.113C144.575 278.235 167.969 302.333 190.151 311.179L194.383 312.866L199.493 307.274C203.081 303.349 206.869 300.562 212.206 297.923L219.809 294.164L254.364 293.642C284.892 293.18 289.413 292.906 293.149 291.291C301.904 287.507 314.149 270.993 322.065 252.292L325.695 243.717L329.517 247.94L333.338 252.164L333.367 262.664C333.4 274.441 332.119 280.403 327.674 289.164C321.937 300.473 311.828 309.413 299.599 313.992C294.339 315.961 291.413 316.156 259.92 316.641C229.222 317.113 225.55 317.348 222.114 319.055C216.266 321.959 213.111 326.79 212.619 333.59C212.066 341.229 214.732 346.59 220.871 350.188L225.326 352.799L261.623 352.419C295.803 352.062 298.357 351.908 305.42 349.783C329.842 342.437 349.26 326.034 360.835 302.97C366.473 291.735 368.502 282.989 369.142 267.164L369.708 253.164L373.531 248.811C375.633 246.417 378.286 241.965 379.426 238.919C381.424 233.577 381.488 231.818 381.209 189.772C380.922 146.489 380.903 146.132 378.627 141.869C377.365 139.507 374.747 135.818 372.809 133.673C369.873 130.423 369.124 128.635 368.326 122.968C363.702 90.1627 349.195 62.0247 324.959 38.8557C305.625 20.3717 282.663 8.1657 256.887 2.6677C243.834 -0.116303 218.612 -0.880303 206.29 1.1357ZM210.339 36.6117C187.954 40.7077 167.897 51.0597 152.505 66.4627C136.862 82.1177 126.88 100.878 122.904 122.097L121.301 130.654L125.556 135.594L129.81 140.534L133.989 131.741C142.163 114.54 155.898 97.4927 170.369 86.5887C198.885 65.1027 237.365 61.4217 268.92 77.1627C290.627 87.9917 309.474 107.799 320.851 131.741L325.03 140.534L329.284 135.594L333.539 130.654L331.936 122.097C324.381 81.7817 294.171 49.5767 253.61 38.5987C245.063 36.2847 218.731 35.0757 210.339 36.6117ZM123.42 313.606C77.5048 326.049 38.5538 357.876 17.4848 400.164C10.0378 415.112 6.11783 426.386 2.74083 442.562C0.468827 453.451 0.0978283 457.747 0.0158283 474.164C-0.0691717 490.89 0.142827 493.583 1.78183 496.664C4.38083 501.55 9.20483 506.453 13.9198 509.002L17.9198 511.164H227.42H436.92L440.92 509.002C445.635 506.453 450.459 501.55 453.058 496.664C454.697 493.583 454.909 490.89 454.824 474.164C454.742 457.747 454.371 453.451 452.099 442.562C448.721 426.378 444.799 415.105 437.35 400.164C424.334 374.056 403.52 350.746 379.048 334.868L372.175 330.409L368.118 335.286C351.844 354.849 330.69 367.866 305.42 373.867C298.042 375.619 292.43 375.95 262.92 376.375C240.232 376.702 226.924 376.496 222.92 375.756C210.495 373.458 200.537 366.414 194.062 355.342C190.541 349.321 189.767 348.611 185.065 347.08C170.118 342.216 150.872 330.566 138.142 318.678C134.011 314.82 130.471 311.705 130.276 311.754C130.08 311.804 126.995 312.637 123.42 313.606Z" fill="black"/>
</svg>
