<svg width="390" height="512" viewBox="0 0 390 512" fill="none" xmlns="http://www.w3.org/2000/svg">
<path fill-rule="evenodd" clip-rule="evenodd" d="M98.7604 2.918L95.4944 5.836V30V54.164L98.7604 57.082L102.026 60H195.587H289.148L292.071 57.077L294.994 54.154V30V5.846L292.071 2.923L289.148 0H195.587H102.026L98.7604 2.918ZM32.9944 31.886C20.5794 35.899 11.3764 43.279 5.69842 53.772C-0.239577 64.746 0.0304189 54.348 0.0114189 272.54C-0.00758108 493.393 -0.43258 478.658 6.28642 489.836C10.0094 496.029 16.6194 502.524 23.0094 506.268C33.2714 512.281 24.8644 512.001 194.954 511.988C321.632 511.978 351.422 511.728 355.494 510.639C367.621 507.394 378.5 498.928 384.29 488.228C390.228 477.254 389.958 487.652 389.977 269.46C389.996 48.607 390.421 63.342 383.702 52.164C379.979 45.971 373.369 39.476 366.979 35.732C359.806 31.529 352.046 30 337.893 30H325.212L324.835 44.75C324.475 58.827 324.315 59.805 321.312 66.18C315.515 78.484 305.352 86.52 292.494 88.964C288.191 89.782 259.619 90.019 191.494 89.802L96.4944 89.5L90.6774 87.153C82.4984 83.853 73.1424 74.895 69.3914 66.773C66.6614 60.863 66.4754 59.618 66.1744 45.25L65.8534 30L52.1744 30.054C41.9094 30.094 37.1214 30.551 32.9944 31.886ZM140.994 151.051C139.619 151.619 130.159 160.395 119.972 170.554L101.45 189.025L95.9804 183.486C87.3024 174.699 78.7294 173.982 72.1354 181.493C68.1694 186.01 67.2774 190.835 69.3884 196.362C71.7854 202.638 91.9434 222.322 97.7444 224.05C105.794 226.449 106.946 225.624 135.143 197.282C158.385 173.92 160.854 171.117 161.453 167.419C162.309 162.128 159.802 155.711 155.752 152.828C152.33 150.391 144.79 149.483 140.994 151.051ZM194.444 181.407C190.37 183.181 186.221 188.274 185.435 192.464C184.205 199.02 188.639 206.416 195.309 208.936C197.175 209.642 216.893 209.999 253.809 209.998C315.882 209.997 313.983 210.198 318.724 203.102C323.481 195.981 320.694 185.63 312.974 181.752C309.782 180.148 304.86 180.006 253.494 180.041C209.196 180.07 196.857 180.356 194.444 181.407ZM140.494 259.149C139.394 259.747 130.303 268.369 120.293 278.309L102.092 296.382L96.5994 291.188C93.5784 288.331 89.9274 285.545 88.4854 284.997C81.0644 282.175 72.6804 285.799 69.6364 293.144C66.2224 301.382 67.3194 303.636 81.9054 318.353C93.9384 330.495 94.8984 331.235 99.2594 331.726C101.798 332.013 105.139 331.935 106.684 331.554C110.841 330.529 157.605 283.861 160.201 278.148C163.397 271.112 160.671 262.953 153.965 259.485C150.626 257.758 143.383 257.577 140.494 259.149ZM194.444 281.407C190.37 283.181 186.221 288.274 185.435 292.464C184.205 299.02 188.639 306.416 195.309 308.936C197.175 309.642 216.893 309.999 253.809 309.998C315.882 309.997 313.983 310.198 318.724 303.102C323.481 295.981 320.694 285.63 312.974 281.752C309.782 280.148 304.86 280.006 253.494 280.041C209.196 280.07 196.857 280.356 194.444 281.407ZM140.494 359.149C139.394 359.747 130.303 368.369 120.293 378.309L102.092 396.382L96.5994 391.188C93.5784 388.331 89.9274 385.545 88.4854 384.997C81.0644 382.175 72.6804 385.799 69.6364 393.144C66.2224 401.382 67.3194 403.636 81.9054 418.353C93.9384 430.495 94.8984 431.235 99.2594 431.726C101.798 432.013 105.139 431.935 106.684 431.554C110.841 430.529 157.605 383.861 160.201 378.148C163.397 371.112 160.671 362.953 153.965 359.485C150.626 357.758 143.383 357.577 140.494 359.149ZM194.444 381.394C187.555 384.423 183.709 392.576 185.956 399.385C187.404 403.773 192.908 408.712 197.223 409.495C199.022 409.821 225.549 409.956 256.171 409.794C310.61 409.507 311.91 409.454 314.61 407.438C319.558 403.743 321.494 400.245 321.494 395C321.494 389.755 319.558 386.257 314.61 382.562C311.905 380.542 310.682 380.495 254.671 380.276C208.663 380.097 196.898 380.315 194.444 381.394Z" fill="black"/>
</svg>
